<svg width="18" height="16" viewBox="0 0 18 16" fill="none" xmlns="http://www.w3.org/2000/svg">
<path d="M4.89109 2.23146C4.89109 1.04511 5.85286 0.0833359 7.03937 0.0833359C8.22572 0.0833359 9.18758 1.04511 9.18758 2.23146C9.18758 3.4178 8.22572 4.37954 7.03937 4.37954C5.85286 4.37958 4.89109 3.4178 4.89109 2.23146ZM8.07173 5.84305C8.09326 5.3753 8.25429 4.94236 8.51335 4.58446C8.33153 4.54638 8.14363 4.52616 7.95081 4.52616H6.12818C5.93592 4.52616 5.74826 4.54623 5.56739 4.58383C5.84308 4.96622 6.00798 5.43322 6.01067 5.93877C6.34578 5.75446 6.73029 5.64952 7.13871 5.64952C7.47002 5.64952 7.78541 5.71854 8.07173 5.84305ZM8.43535 6.03587C9.05932 6.42716 9.49688 7.08898 9.5769 7.85756C9.83115 7.97638 10.1137 8.04494 10.413 8.04494C11.5061 8.04494 12.3922 7.15882 12.3922 6.06572C12.3922 4.9725 11.5061 4.08657 10.413 4.08657C9.32988 4.0866 8.45179 4.95681 8.43535 6.03587ZM7.13868 10.0884C8.23162 10.0884 9.11771 9.20203 9.11771 8.10924C9.11771 7.0163 8.23162 6.13009 7.13868 6.13009C6.04565 6.13009 5.15918 7.01627 5.15918 8.10924C5.15922 9.20203 6.04565 10.0884 7.13868 10.0884ZM7.97822 10.2231H6.29899C4.90172 10.2231 3.7647 11.36 3.7647 12.7575V14.8114L3.77005 14.8436L3.91141 14.8875C5.24493 15.304 6.40346 15.4433 7.3571 15.4433C9.21934 15.4433 10.2992 14.9123 10.3657 14.8783L10.498 14.8114H10.512V12.7574C10.512 11.36 9.37568 10.2231 7.97822 10.2231ZM11.253 8.18002H9.58634C9.56824 8.84687 9.28365 9.44739 8.83355 9.87904C10.0756 10.2484 10.9844 11.4001 10.9844 12.7606V13.3935C12.6296 13.3329 13.5779 12.8669 13.6403 12.8354L13.7726 12.7682H13.7866V10.7139C13.7868 9.31679 12.6499 8.18002 11.253 8.18002ZM11.6985 4.04437C12.3225 4.43572 12.76 5.09757 12.8398 5.86615C13.0941 5.98498 13.3766 6.05341 13.6759 6.05341C14.7693 6.05341 15.6553 5.16741 15.6553 4.07447C15.6553 2.98122 14.7693 2.09531 13.6759 2.09531C12.593 2.09519 11.715 2.96559 11.6985 4.04437ZM14.5157 6.18851H12.8494C12.8313 6.85537 12.5468 7.45589 12.0967 7.88751C13.3387 8.25673 14.2475 9.4086 14.2475 10.7691V11.402C15.8925 11.3415 16.841 10.8755 16.9034 10.8439L17.0356 10.7769H17.0498V8.7223C17.05 7.32535 15.913 6.18851 14.5157 6.18851ZM3.66595 8.04497C4.05315 8.04497 4.41318 7.93187 4.7185 7.73933C4.8156 7.10658 5.15484 6.55355 5.63926 6.17707C5.64129 6.13994 5.6447 6.10327 5.6447 6.06575C5.6447 4.97253 4.75842 4.0866 3.66595 4.0866C2.57254 4.0866 1.68664 4.9725 1.68664 6.06575C1.68664 7.15904 2.57251 8.04497 3.66595 8.04497ZM5.44338 9.87904C4.99538 9.44946 4.71175 8.85222 4.69087 8.18924C4.62925 8.18464 4.56807 8.18002 4.50508 8.18002H2.82603C1.42858 8.18002 0.291748 9.31679 0.291748 10.7141V12.7682L0.296937 12.8002L0.438486 12.8443C1.50804 13.1788 2.46297 13.3325 3.29235 13.3805V12.7604C3.29251 11.4001 4.20104 10.2482 5.44338 9.87904Z" fill="#558A8C"/>
</svg>
