<svg width="25" height="24" viewBox="0 0 25 24" fill="none" xmlns="http://www.w3.org/2000/svg">
<path d="M13.1571 1.70464L2.08503 0.0221663C1.57122 -0.0584314 1.04733 0.0826146 0.654418 0.41508C0.261504 0.757621 0.0297852 1.25128 0.0297852 1.76509V22.9925C0.0297852 23.5466 0.483147 24 1.03726 24H4.31154V18.7108C4.31154 17.7335 5.09737 16.9477 6.07462 16.9477H8.5933C9.57054 16.9477 10.3564 17.7335 10.3564 18.7108V24H14.6381V3.44757C14.6381 2.58114 14.0135 1.84569 13.1571 1.70464V1.70464ZM5.57088 14.6809H4.05967C3.64258 14.6809 3.30407 14.3424 3.30407 13.9253C3.30407 13.5082 3.64258 13.1697 4.05967 13.1697H5.57088C5.98797 13.1697 6.32648 13.5082 6.32648 13.9253C6.32648 14.3424 5.98797 14.6809 5.57088 14.6809ZM5.57088 11.6585H4.05967C3.64258 11.6585 3.30407 11.32 3.30407 10.9029C3.30407 10.4858 3.64258 10.1473 4.05967 10.1473H5.57088C5.98797 10.1473 6.32648 10.4858 6.32648 10.9029C6.32648 11.32 5.98797 11.6585 5.57088 11.6585ZM5.57088 8.63605H4.05967C3.64258 8.63605 3.30407 8.29754 3.30407 7.88045C3.30407 7.46335 3.64258 7.12484 4.05967 7.12484H5.57088C5.98797 7.12484 6.32648 7.46335 6.32648 7.88045C6.32648 8.29754 5.98797 8.63605 5.57088 8.63605ZM5.57088 5.61363H4.05967C3.64258 5.61363 3.30407 5.27512 3.30407 4.85803C3.30407 4.44094 3.64258 4.10243 4.05967 4.10243H5.57088C5.98797 4.10243 6.32648 4.44094 6.32648 4.85803C6.32648 5.27512 5.98797 5.61363 5.57088 5.61363ZM10.6082 14.6809H9.09703C8.67994 14.6809 8.34143 14.3424 8.34143 13.9253C8.34143 13.5082 8.67994 13.1697 9.09703 13.1697H10.6082C11.0253 13.1697 11.3638 13.5082 11.3638 13.9253C11.3638 14.3424 11.0253 14.6809 10.6082 14.6809ZM10.6082 11.6585H9.09703C8.67994 11.6585 8.34143 11.32 8.34143 10.9029C8.34143 10.4858 8.67994 10.1473 9.09703 10.1473H10.6082C11.0253 10.1473 11.3638 10.4858 11.3638 10.9029C11.3638 11.32 11.0253 11.6585 10.6082 11.6585ZM10.6082 8.63605H9.09703C8.67994 8.63605 8.34143 8.29754 8.34143 7.88045C8.34143 7.46335 8.67994 7.12484 9.09703 7.12484H10.6082C11.0253 7.12484 11.3638 7.46335 11.3638 7.88045C11.3638 8.29754 11.0253 8.63605 10.6082 8.63605ZM10.6082 5.61363H9.09703C8.67994 5.61363 8.34143 5.27512 8.34143 4.85803C8.34143 4.44094 8.67994 4.10243 9.09703 4.10243H10.6082C11.0253 4.10243 11.3638 4.44094 11.3638 4.85803C11.3638 5.27512 11.0253 5.61363 10.6082 5.61363Z" fill="black"/>
<path d="M22.8187 10.7437L15.6455 9.24155V24H22.4459C23.4182 24 24.209 23.2091 24.209 22.2369V12.4665C24.209 11.6343 23.6418 10.926 22.8187 10.7437V10.7437ZM20.431 20.9776H18.9198C18.5027 20.9776 18.1642 20.6391 18.1642 20.222C18.1642 19.8049 18.5027 19.4664 18.9198 19.4664H20.431C20.8481 19.4664 21.1866 19.8049 21.1866 20.222C21.1866 20.6391 20.8481 20.9776 20.431 20.9776ZM20.431 17.9552H18.9198C18.5027 17.9552 18.1642 17.6167 18.1642 17.1996C18.1642 16.7825 18.5027 16.444 18.9198 16.444H20.431C20.8481 16.444 21.1866 16.7825 21.1866 17.1996C21.1866 17.6167 20.8481 17.9552 20.431 17.9552ZM20.431 14.9328H18.9198C18.5027 14.9328 18.1642 14.5942 18.1642 14.1772C18.1642 13.7601 18.5027 13.4215 18.9198 13.4215H20.431C20.8481 13.4215 21.1866 13.7601 21.1866 14.1772C21.1866 14.5942 20.8481 14.9328 20.431 14.9328Z" fill="black"/>
</svg>
