<svg width="24" height="26" viewBox="0 0 24 26" fill="none" xmlns="http://www.w3.org/2000/svg">
<path d="M23.5054 17.0235C23.2991 16.752 23.0208 16.5402 22.7039 16.4147C22.1493 16.195 21.5474 16.2407 21.0414 16.5329L17.7004 18.4618C17.6815 18.7436 17.628 19.0283 17.5345 19.3104C16.9603 21.0429 15.106 22.0028 13.343 21.5304L10.0404 20.6455C9.63405 20.5366 9.39288 20.1189 9.50176 19.7126C9.61063 19.3062 10.0283 19.0651 10.4347 19.174L13.7876 20.0724C14.8035 20.3446 15.8477 19.7417 16.1199 18.7259C16.3921 17.71 15.7892 16.6658 14.7734 16.3936L9.65431 15.0219C8.67164 14.7586 7.6453 14.8937 6.76429 15.4024L0.380987 19.0878C0.0166826 19.2982 -0.108189 19.764 0.102198 20.1283L3.27227 25.6191C3.37327 25.7941 3.53963 25.9217 3.73479 25.974C3.92994 26.0263 4.13784 25.999 4.31278 25.8979L7.19152 24.2359L13.3494 24.6331C14.1022 24.6816 14.8454 24.5079 15.4988 24.1307L22.9457 19.8312C23.9256 19.2654 24.2126 17.9543 23.5054 17.0235V17.0235Z" fill="#E55A5A"/>
<path d="M6.87061 12.1875H17.0269C17.4475 12.1875 17.7886 11.8465 17.7886 11.4258C17.7886 9.40407 16.7557 7.61916 15.1901 6.57053C14.3465 7.37592 13.2043 7.87114 11.9487 7.87114C10.6931 7.87114 9.55099 7.37592 8.70742 6.57053C7.14178 7.61916 6.10889 9.40407 6.10889 11.4258C6.10889 11.8465 6.44993 12.1875 6.87061 12.1875Z" fill="#E55A5A"/>
<path d="M11.9487 6.34766C13.7016 6.34766 15.1226 4.92669 15.1226 3.17383C15.1226 1.42097 13.7016 0 11.9487 0C10.1959 0 8.7749 1.42097 8.7749 3.17383C8.7749 4.92669 10.1959 6.34766 11.9487 6.34766Z" fill="#E55A5A"/>
</svg>
