<svg width="24" height="24" viewBox="0 0 24 24" fill="none" xmlns="http://www.w3.org/2000/svg">
<path d="M2.39062 14.5312H4.26562V16.4062H5.67188V1.40625H8.48438V2.81358C8.06419 3.05677 7.78125 3.5108 7.78125 4.03125V4.96875C7.78125 5.22764 7.99111 5.4375 8.25 5.4375H10.125C10.3839 5.4375 10.5938 5.22764 10.5938 4.96875V4.03125C10.5938 3.51084 10.3108 3.05677 9.89062 2.81358V1.40625H14.1094V2.81358C13.6892 3.05677 13.4062 3.5108 13.4062 4.03125V4.96875C13.4062 5.22764 13.6161 5.4375 13.875 5.4375H15.75C16.0089 5.4375 16.2188 5.22764 16.2188 4.96875V4.03125C16.2188 3.51084 15.9358 3.05677 15.5156 2.81358V1.40625H18.3281V16.4062H19.7344V14.5312H21.6094V16.4062H23.0156V0.703125C23.0156 0.314812 22.7008 0 22.3125 0H1.6875C1.29919 0 0.984375 0.314812 0.984375 0.703125V16.4062H2.39062V14.5312ZM19.7344 1.40625H21.6094V3.28125H19.7344V1.40625ZM19.7344 4.6875H21.6094V6.5625H19.7344V4.6875ZM19.7344 7.96875H21.6094V9.84375H19.7344V7.96875ZM19.7344 11.25H21.6094V13.125H19.7344V11.25ZM2.39062 1.40625H4.26562V3.28125H2.39062V1.40625ZM2.39062 4.6875H4.26562V6.5625H2.39062V4.6875ZM2.39062 7.96875H4.26562V9.84375H2.39062V7.96875ZM2.39062 11.25H4.26562V13.125H2.39062V11.25Z" fill="#007A00"/>
<path d="M7.07812 11.4844H16.9219V16.4062H7.07812V11.4844Z" fill="#007A00"/>
<path d="M15.8424 17.8125H8.15735L6.68032 23.108C6.5553 23.5562 6.89229 24 7.35757 24H16.6421C17.1074 24 17.4444 23.5561 17.3193 23.108L15.8424 17.8125Z" fill="#007A00"/>
<path d="M23.0625 17.8125H17.3025L18.6099 22.5H23.2969C23.6852 22.5 24 22.1852 24 21.7969V18.75C24 18.2322 23.5803 17.8125 23.0625 17.8125Z" fill="#007A00"/>
<path d="M0.9375 17.8125C0.419719 17.8125 0 18.2322 0 18.75V21.7969C0 22.1852 0.314813 22.5 0.703125 22.5H5.39011L6.69755 17.8125H0.9375Z" fill="#007A00"/>
</svg>
