<svg width="24" height="24" viewBox="0 0 24 24" fill="none" xmlns="http://www.w3.org/2000/svg">
<path d="M0 11.1111H2.66667V12.8889H0V11.1111Z" fill="#F05454"/>
<path d="M21.3333 11.1111H23.9999V12.8889H21.3333V11.1111Z" fill="#F05454"/>
<path d="M17.7778 5.18519L19.8519 3.11111L20.8889 4.14815L18.8149 6.22223L17.7778 5.18519Z" fill="#F05454"/>
<path d="M5.18516 6.22223L3.11108 4.14815L4.14812 3.11111L6.2222 5.18519L5.18516 6.22223Z" fill="#F05454"/>
<path d="M11.1111 0H12.8889V2.66667H11.1111V0Z" fill="#F05454"/>
<path d="M5.81807 21.3333C5.0593 21.3333 4.44434 21.9302 4.44434 22.6667V24H19.5554V22.6667C19.5554 21.9302 18.9405 21.3333 18.1817 21.3333H5.81807Z" fill="#F05454"/>
<path d="M5.77783 12.1565V20H18.2223V12.1565C18.2223 8.63916 15.4311 5.77777 12.0001 5.77777C8.56901 5.77777 5.77783 8.63916 5.77783 12.1565ZM11.3087 10.0303H12.6914V14.2828H11.3087V10.0303ZM11.3087 15.7003H12.6914V17.1177H11.3087V15.7003Z" fill="#F05454"/>
</svg>
