<svg width="9" height="19" viewBox="0 0 9 19" fill="none" xmlns="http://www.w3.org/2000/svg">
<path d="M8.14359 16.9496L7.87811 18.0348C7.08168 18.3492 6.44549 18.5884 5.97176 18.7529C5.49751 18.9179 4.94647 19 4.31862 19C3.35446 19 2.60452 18.7638 2.06966 18.2947C1.53479 17.8237 1.26727 17.2268 1.26727 16.5028C1.26727 16.2225 1.28668 15.9342 1.32704 15.6404C1.36774 15.3463 1.43245 15.0151 1.52099 14.6449L2.51632 11.1221C2.60486 10.7847 2.68013 10.4651 2.74041 10.1628C2.80154 9.86245 2.831 9.58608 2.831 9.33729C2.831 8.8874 2.73786 8.57271 2.55242 8.39578C2.36697 8.21936 2.01312 8.12979 1.48779 8.12979C1.23049 8.12979 0.966032 8.171 0.69647 8.2507C0.425715 8.33073 0.194296 8.40804 0 8.4799L0.266157 7.39382C0.918182 7.12834 1.54143 6.90101 2.1376 6.71233C2.73377 6.52315 3.29708 6.42847 3.8299 6.42847C4.78742 6.42847 5.52629 6.65988 6.04515 7.12272C6.56401 7.5859 6.82336 8.18633 6.82336 8.92622C6.82336 9.07931 6.80633 9.34904 6.76972 9.73457C6.73396 10.1209 6.66738 10.475 6.57031 10.797L5.57925 14.3057C5.49802 14.5875 5.42497 14.9097 5.36145 15.2723C5.29589 15.6324 5.26456 15.9076 5.26456 16.0922C5.26456 16.5581 5.36844 16.8762 5.5767 17.0453C5.78649 17.2144 6.14783 17.2985 6.66108 17.2985C6.90203 17.2985 7.17619 17.2558 7.48083 17.1718C7.78462 17.0879 8.00616 17.0141 8.14359 16.9496ZM8.39493 2.21883C8.39493 2.83015 8.16453 3.35225 7.70152 3.78154C7.23971 4.21236 6.68321 4.42795 6.03221 4.42795C5.37916 4.42795 4.82131 4.21236 4.35421 3.78154C3.88797 3.35208 3.65434 2.83015 3.65434 2.21883C3.65434 1.60869 3.88797 1.08574 4.35421 0.651003C4.82046 0.216944 5.37933 0 6.03221 0C6.68304 0 7.23971 0.217455 7.70152 0.651003C8.16487 1.08574 8.39493 1.60886 8.39493 2.21883Z" fill="#039CF3"/>
</svg>
