<svg width="14" height="16" viewBox="0 0 14 16" fill="none" xmlns="http://www.w3.org/2000/svg">
<path d="M11.4546 12.4091V9.22726C11.4546 8.17472 12.3111 7.31817 13.3637 7.31817C13.715 7.31817 14 7.60326 14 7.95454C14 8.30835 13.7111 8.59535 13.356 8.5909C13.0073 8.58645 12.7273 8.87854 12.7273 9.22726V11.1364C12.7273 11.8395 12.1578 12.4091 11.4546 12.4091Z" fill="#FF8D54"/>
<path d="M2.54545 12.4091V9.22726C2.54545 8.17472 1.68891 7.31817 0.636364 7.31817C0.285091 7.31817 0 7.60326 0 7.95454C0 8.30835 0.288909 8.59535 0.644 8.5909C0.992727 8.58645 1.27273 8.87854 1.27273 9.22726V11.1364C1.27273 11.8395 1.84227 12.4091 2.54545 12.4091Z" fill="#FF8D54"/>
<path d="M9.70463 15.2727H4.29554C3.94427 15.2727 3.65918 14.9876 3.65918 14.6364C3.65918 14.2851 3.94427 14 4.29554 14H9.70463C10.0559 14 10.341 14.2851 10.341 14.6364C10.341 14.9876 10.0559 15.2727 9.70463 15.2727Z" fill="#FF8D54"/>
<path d="M6.99989 15.2727C6.64862 15.2727 6.36353 14.9876 6.36353 14.6364V11.9318C6.36353 11.5805 6.64862 11.2955 6.99989 11.2955C7.35116 11.2955 7.63625 11.5805 7.63625 11.9318V14.6364C7.63625 14.9876 7.35116 15.2727 6.99989 15.2727Z" fill="#FF8D54"/>
<path d="M10.2206 8.27273H3.77929C3.44966 8.27273 3.13911 8.12764 2.9272 7.87564C2.71466 7.62364 2.62557 7.29273 2.6822 6.96818L3.73348 0.922727C3.82638 0.388182 4.28775 0 4.83057 0H9.16866C9.71211 0 10.1735 0.388182 10.2657 0.923364L11.317 6.96882C11.3737 7.29336 11.2846 7.62427 11.072 7.87627C10.8607 8.12764 10.5502 8.27273 10.2206 8.27273V8.27273Z" fill="#FF8D54"/>
<path d="M11.6137 12.4091H2.38645C2.123 12.4091 1.90918 12.1953 1.90918 11.9318V10.6591C1.90918 9.69372 2.69382 8.90909 3.65918 8.90909H10.341C11.3064 8.90909 12.091 9.69372 12.091 10.6591V11.9318C12.091 12.1953 11.8772 12.4091 11.6137 12.4091Z" fill="#FF8D54"/>
</svg>
