<svg width="13" height="16" viewBox="0 0 13 16" fill="none" xmlns="http://www.w3.org/2000/svg">
<path d="M6.48291 0C4.329 0 2.57666 1.75234 2.57666 3.90625C2.57666 6.06016 4.329 7.8125 6.48291 7.8125C8.63682 7.8125 10.3892 6.06016 10.3892 3.90625C10.3892 1.75234 8.63682 0 6.48291 0Z" fill="#BC6996"/>
<path d="M6.5328 8.75H6.4113C5.8289 8.75 5.25387 8.83278 4.70215 8.99172L6.48346 11.7462L8.26271 8.99484C7.70487 8.83384 7.12277 8.75 6.5328 8.75Z" fill="#BC6996"/>
<path d="M12.6615 13.9988C12.3538 11.9745 11.0567 10.2127 9.16169 9.33125L6.95166 12.7487V16H12.9658L12.6615 13.9988Z" fill="#BC6996"/>
<path d="M3.80338 9.32812C1.89881 10.215 0.610156 11.987 0.304281 13.9988L0 16H6.01416V12.7467L3.80338 9.32812Z" fill="#BC6996"/>
</svg>
