<svg width="24" height="27" viewBox="0 0 24 27" fill="none" xmlns="http://www.w3.org/2000/svg">
<path d="M11.9386 0C8.42334 0 5.56348 2.85987 5.56348 6.37509C5.56348 9.89032 8.42334 12.7502 11.9386 12.7502C15.4538 12.7502 18.3137 9.89032 18.3137 6.37509C18.3137 2.85987 15.4538 0 11.9386 0Z" fill="#44A64B"/>
<path d="M12.0201 14.2802H11.8219C10.8714 14.2802 9.93289 14.4153 9.03247 14.6747L11.9396 19.17L14.8434 14.6798C13.933 14.417 12.983 14.2802 12.0201 14.2802Z" fill="#44A64B"/>
<path d="M22.0223 22.8463C21.52 19.5427 19.4031 16.6674 16.3104 15.2288L12.7036 20.8062V26.1124H22.5189L22.0223 22.8463Z" fill="#44A64B"/>
<path d="M7.5656 15.2237C4.45731 16.6711 2.35419 19.5631 1.85499 22.8463L1.3584 26.1124H11.1736V20.803L7.5656 15.2237Z" fill="#44A64B"/>
<rect y="19.9238" width="23.8483" height="4.98097" fill="#00A651"/>
<path d="M8.31839 20.8697V23.968H7.81886V22.6128H6.386V23.968H5.88647V20.8697H6.386V22.1982H7.81886V20.8697H8.31839Z" fill="white"/>
<path d="M9.47554 21.2798V22.1892H10.5272V22.6039H9.47554V23.5534H10.6586V23.968H8.97601V20.8652H10.6586V21.2798H9.47554Z" fill="white"/>
<path d="M11.7734 23.5579H12.8032V23.968H11.2739V20.8697H11.7734V23.5579Z" fill="white"/>
<path d="M13.7204 23.5579H14.7502V23.968H13.2209V20.8697H13.7204V23.5579Z" fill="white"/>
<path d="M16.557 23.9992C16.2736 23.9992 16.0121 23.9324 15.7726 23.7986C15.536 23.6619 15.3476 23.4732 15.2073 23.2324C15.0701 22.9887 15.0014 22.7153 15.0014 22.4122C15.0014 22.109 15.0701 21.8371 15.2073 21.5963C15.3476 21.3556 15.536 21.1683 15.7726 21.0346C16.0121 20.8979 16.2736 20.8295 16.557 20.8295C16.8432 20.8295 17.1047 20.8979 17.3413 21.0346C17.5808 21.1683 17.7693 21.3556 17.9066 21.5963C18.0439 21.8371 18.1125 22.109 18.1125 22.4122C18.1125 22.7153 18.0439 22.9887 17.9066 23.2324C17.7693 23.4732 17.5808 23.6619 17.3413 23.7986C17.1047 23.9324 16.8432 23.9992 16.557 23.9992ZM16.557 23.5579C16.7585 23.5579 16.9382 23.5118 17.0959 23.4197C17.2537 23.3246 17.3764 23.1908 17.464 23.0185C17.5545 22.8431 17.5998 22.641 17.5998 22.4122C17.5998 22.1833 17.5545 21.9827 17.464 21.8103C17.3764 21.6379 17.2537 21.5057 17.0959 21.4135C16.9382 21.3214 16.7585 21.2753 16.557 21.2753C16.3554 21.2753 16.1757 21.3214 16.018 21.4135C15.8602 21.5057 15.7361 21.6379 15.6455 21.8103C15.5579 21.9827 15.5141 22.1833 15.5141 22.4122C15.5141 22.641 15.5579 22.8431 15.6455 23.0185C15.7361 23.1908 15.8602 23.3246 16.018 23.4197C16.1757 23.5118 16.3554 23.5579 16.557 23.5579Z" fill="white"/>
</svg>
