<svg width="27" height="27" viewBox="0 0 27 27" fill="none" xmlns="http://www.w3.org/2000/svg">
<g clip-path="url(#clip0)">
<path d="M0.791016 27H15.1348C15.5717 27 15.9258 26.6459 15.9258 26.209V25.3652C15.9258 24.4914 15.2176 23.7832 14.3438 23.7832V22.8375C14.3438 21.5852 13.3249 20.5664 12.0727 20.5664H3.85311C2.60088 20.5664 1.58203 21.5852 1.58203 22.8375V23.7832C0.708206 23.7832 0 24.4914 0 25.3652V26.209C0 26.6457 0.354309 27 0.791016 27Z" fill="#D66400"/>
<path d="M9.9 17.4205C10.4257 18.1182 11.4178 18.2576 12.1155 17.7317C12.8134 17.206 12.9526 16.214 12.4269 15.5161L7.66641 9.19886C7.14051 8.50095 6.14865 8.3617 5.45095 8.8874C4.75305 9.4133 4.61359 10.4052 5.13949 11.1031L9.9 17.4205Z" fill="#D66400"/>
<path d="M21.2712 8.85155C21.7971 9.54926 22.7889 9.68871 23.4868 9.16281C24.1845 8.63712 24.324 7.64526 23.7981 6.94735L19.0376 0.630143C18.5119 -0.0677632 17.5198 -0.207221 16.8221 0.318681C16.1244 0.844583 15.9849 1.83644 16.5108 2.53435L21.2712 8.85155Z" fill="#D66400"/>
<path d="M17.8012 13.4473C18.9704 12.5662 19.8481 11.4722 20.3971 10.3203L14.8579 2.9696C13.5993 3.17992 12.3059 3.72189 11.1365 4.60313C9.96724 5.48417 9.0895 6.5782 8.54053 7.72991L14.0797 15.081C15.3383 14.8707 16.6318 14.3285 17.8012 13.4473Z" fill="#D66400"/>
<path d="M19.9371 13.6533C19.5688 14.0286 19.1809 14.3884 18.7533 14.7108C18.3254 15.033 17.8724 15.3068 17.4104 15.5575L18.4418 16.9263L20.9687 15.0223L19.9371 13.6533Z" fill="#D66400"/>
<path d="M21.9207 16.2857L19.3938 18.1897L24.1543 24.5071C24.6802 25.205 25.6721 25.3442 26.3698 24.8185C27.0677 24.2926 27.2069 23.3008 26.6812 22.6029L21.9207 16.2857Z" fill="#D66400"/>
</g>
<defs>
<clipPath id="clip0">
<rect width="27" height="27" fill="white"/>
</clipPath>
</defs>
</svg>
