<svg width="30" height="22" viewBox="0 0 30 22" fill="none" xmlns="http://www.w3.org/2000/svg">
<path d="M12.3457 19.367C12.3457 20.8189 13.5268 22 14.9787 22C16.4306 22 17.6117 20.8189 17.6117 19.367C17.6117 18.2243 16.8757 17.2592 15.8563 16.8957V13.9545C16.4524 13.8754 17.0332 13.7485 17.5746 13.5318C17.5917 13.4108 17.6117 13.2905 17.6117 13.1649C17.6117 11.713 16.4306 10.5319 14.9787 10.5319C13.5268 10.5319 12.3457 11.713 12.3457 13.1649C12.3457 13.2906 12.3657 13.4108 12.3828 13.5318C12.9241 13.7484 13.5049 13.8754 14.101 13.9545V16.8957C13.0816 17.2592 12.3457 18.2243 12.3457 19.367V19.367Z" fill="#1B83B1"/>
<path d="M27.266 4.3883C26.1232 4.3883 25.1582 5.12424 24.7946 6.14362H21.9116C21.4757 2.68365 18.5574 0 14.9787 0C11.4 0 8.48176 2.68365 8.04586 6.14362H5.1628C4.79928 5.12424 3.8342 4.3883 2.69149 4.3883C1.23961 4.3883 0 5.56939 0 7.02128C0 8.47316 1.23961 9.65426 2.69149 9.65426C3.8342 9.65426 4.79928 8.91831 5.1628 7.89894H8.03105C8.18921 9.12456 8.65501 10.2616 9.37926 11.1989L7.29739 13.2807C6.34355 12.8866 5.20505 13.0722 4.42797 13.8479C3.40117 14.8748 3.40117 16.5444 4.42797 17.5712C5.45401 18.5988 7.12835 18.5983 8.15287 17.5703C8.98852 16.734 9.10584 15.4864 8.57918 14.4915L10.6957 12.375C10.9348 10.5836 12.6725 8.7766 14.9787 8.7766C13.5218 8.7766 12.3457 7.60047 12.3457 6.14362C12.3457 4.68664 13.5218 3.51064 14.9787 3.51064C16.4357 3.51064 17.6117 4.68664 17.6117 6.14362C17.6117 7.60047 16.4357 8.7766 14.9787 8.7766C16.9622 8.7766 18.858 10.1457 19.2969 12.4979L21.3436 14.5446C20.8513 15.5302 20.9844 16.7494 21.8046 17.5703V17.5712C22.8351 18.6001 24.5019 18.597 25.5295 17.5712C26.5563 16.5444 26.5563 14.8748 25.5295 13.848C24.7396 13.0561 23.5721 12.8887 22.6067 13.3152L20.543 11.2515C21.2847 10.2961 21.7646 9.14972 21.9254 7.89894H24.7946C25.1581 8.91831 26.1232 9.65426 27.2659 9.65426C28.7178 9.65426 29.9574 8.47316 29.9574 7.02128C29.9574 5.56939 28.7178 4.3883 27.266 4.3883V4.3883Z" fill="#1B83B1"/>
<path d="M14.9787 7.02128C15.4635 7.02128 15.8564 6.62834 15.8564 6.14362C15.8564 5.6589 15.4635 5.26596 14.9787 5.26596C14.494 5.26596 14.1011 5.6589 14.1011 6.14362C14.1011 6.62834 14.494 7.02128 14.9787 7.02128Z" fill="#1B83B1"/>
</svg>
