<svg width="24" height="26" viewBox="0 0 24 26" fill="none" xmlns="http://www.w3.org/2000/svg">
<path d="M3.33325 7.3125C3.33325 4.47525 5.64183 2.16667 8.47908 2.16667H18.3732C18.0167 0.91975 16.8803 0 15.5207 0H3.06242C1.419 0 0.083252 1.33575 0.083252 2.97917V19.7708C0.083252 21.4143 1.419 22.75 3.06242 22.75H3.33325V7.3125Z" fill="#DC5AF2"/>
<path d="M20.9375 4.33331H8.47917C6.83575 4.33331 5.5 5.66906 5.5 7.31248V23.0208C5.5 24.6642 6.83575 26 8.47917 26H20.9375C22.5809 26 23.9167 24.6642 23.9167 23.0208V7.31248C23.9167 5.66906 22.5809 4.33331 20.9375 4.33331ZM18.7708 22.75H10.6458C10.1973 22.75 9.83333 22.386 9.83333 21.9375C9.83333 21.489 10.1973 21.125 10.6458 21.125H18.7708C19.2193 21.125 19.5833 21.489 19.5833 21.9375C19.5833 22.386 19.2193 22.75 18.7708 22.75ZM18.7708 18.4166H10.6458C10.1973 18.4166 9.83333 18.0526 9.83333 17.6041C9.83333 17.1556 10.1973 16.7916 10.6458 16.7916H18.7708C19.2193 16.7916 19.5833 17.1556 19.5833 17.6041C19.5833 18.0526 19.2193 18.4166 18.7708 18.4166ZM18.7708 14.625H10.6458C10.1973 14.625 9.83333 14.261 9.83333 13.8125C9.83333 13.364 10.1973 13 10.6458 13H18.7708C19.2193 13 19.5833 13.364 19.5833 13.8125C19.5833 14.261 19.2193 14.625 18.7708 14.625ZM18.7708 10.2916H10.6458C10.1973 10.2916 9.83333 9.92765 9.83333 9.47915C9.83333 9.03065 10.1973 8.66665 10.6458 8.66665H18.7708C19.2193 8.66665 19.5833 9.03065 19.5833 9.47915C19.5833 9.92765 19.2193 10.2916 18.7708 10.2916Z" fill="#DC5AF2"/>
</svg>
